<svg xmlns="http://www.w3.org/2000/svg" viewBox="0 0 24 24">
    <mask id="a" width="24" height="24" x="0" y="0" maskUnits="userSpaceOnUse" style="mask-type:alpha">
        <path fill="#D9D9D9" d="M0 0h24v24H0z"/>
    </mask>
    <g mask="url(#a)">
        <path d="M12 21c-2.5 0-4.625-.875-6.375-2.625S3 14.5 3 12s.875-4.625 2.625-6.375S9.5 3 12 3a9.304 9.304 0 0 1 1.35.1 5.292 5.292 0 0 0-1.637 1.887A5.31 5.31 0 0 0 11.1 7.5c0 1.5.525 2.775 1.575 3.825C13.725 12.375 15 12.9 16.5 12.9a5.28 5.28 0 0 0 2.525-.613A5.322 5.322 0 0 0 20.9 10.65 8.505 8.505 0 0 1 21 12c0 2.5-.875 4.625-2.625 6.375S14.5 21 12 21Z"/>
    </g>
</svg>
